<svg xmlns="http://www.w3.org/2000/svg" width="512" height="512" viewBox="0 0 512 512" version="1.1">
	<path d="M 240.500 65.435 C 208.559 71.783, 182.859 95.196, 173.975 126.039 C 170.895 136.731, 170.201 154.947, 172.450 166.066 C 177.571 191.379, 194.351 213.451, 217.148 224.863 C 231.630 232.112, 240.412 234.223, 256 234.200 C 271.482 234.178, 280.352 232.071, 294.663 225.017 C 302.556 221.126, 306.649 218.293, 312.985 212.332 C 325.751 200.322, 332.192 190.284, 337.579 174 C 340.160 166.198, 340.395 164.228, 340.445 150 C 340.492 136.696, 340.175 133.376, 338.203 126.568 C 327.700 90.297, 296.419 65.762, 259 64.447 C 251.601 64.187, 245.004 64.540, 240.500 65.435 M 241.500 278.035 C 215.394 280.973, 193.879 288.801, 172.500 303.139 C 133.679 329.174, 109.339 372.071, 107.317 418.017 C 106.774 430.356, 106.900 431.881, 108.769 435.517 C 111.355 440.546, 115.449 444.455, 120.218 446.447 C 123.515 447.824, 138.867 448, 256 448 C 373.133 448, 388.485 447.824, 391.782 446.447 C 396.551 444.455, 400.645 440.546, 403.231 435.517 C 405.100 431.881, 405.226 430.356, 404.683 418.017 C 401.661 349.350, 349.037 290.557, 280.703 279.505 C 268.850 277.588, 251.315 276.930, 241.500 278.035" stroke="none" fill="black" fill-rule="evenodd"/>
</svg>